<?xml version="1.0" encoding="utf-8"?>
<!-- Generator: Adobe Illustrator 20.0.0, SVG Export Plug-In . SVG Version: 6.00 Build 0)  -->
<svg version="1.1" id="Layer_1" xmlns="http://www.w3.org/2000/svg" xmlns:xlink="http://www.w3.org/1999/xlink" x="0px" y="0px"
	 viewBox="0 0 320 43.2" style="enable-background:new 0 0 320 43.2;" xml:space="preserve">
<style type="text/css">
	.st0{fill:#081023;}
	.st1{fill:#3063F5;}
</style>
<g>
	<rect x="37.4" y="0.5" class="st0" width="3.9" height="34.9"/>
	<rect x="28.3" y="12.1" class="st0" width="3.9" height="23.3"/>
	<polygon class="st0" points="48.8,23.8 59.7,12.8 57,10.1 43.3,23.8 59.7,40.3 62.5,37.5 	"/>
	<path class="st1" d="M304,15.5c4.6,0,8.3,3.7,8.3,8.3S308.5,32,304,32s-8.3-3.7-8.3-8.3S299.4,15.5,304,15.5 M304,11.6
		c-6.7,0-12.1,5.4-12.1,12.1s5.4,12.1,12.1,12.1s12.1-5.4,12.1-12.1S310.7,11.6,304,11.6L304,11.6z"/>
	<path class="st1" d="M277.2,11.7l8.4-8.4l-2.7-2.7l-15,15c-2,2.2-3.2,5.1-3.2,8.3c0,6.7,5.4,12.1,12.1,12.1
		c6.7,0,12.1-5.4,12.1-12.1C288.9,17.2,283.7,11.9,277.2,11.7z M276.8,32c-4.6,0-8.3-3.7-8.3-8.3c0-2.2,0.9-4.3,2.4-5.8l0.1-0.1
		c1.5-1.5,3.5-2.4,5.8-2.4c4.6,0,8.3,3.7,8.3,8.3S281.3,32,276.8,32z"/>
	<path class="st0" d="M12.1,11.6c-3.2,0-6.1,1.2-8.3,3.2V0.5H0v34.9h3.9v-2.8c2.2,2,5.1,3.2,8.3,3.2c6.7,0,12.1-5.4,12.1-12.1
		S18.8,11.6,12.1,11.6z M12.1,32c-4.6,0-8.3-3.7-8.3-8.3s3.7-8.3,8.3-8.3c4.6,0,8.3,3.7,8.3,8.3S16.7,32,12.1,32z"/>
	<path class="st0" d="M155.4,12.1v2.8c-2.2-2-5.1-3.2-8.3-3.2c-6.7,0-12.1,5.4-12.1,12.1s5.4,12.1,12.1,12.1c3.2,0,6.1-1.2,8.3-3.2
		v2.8h3.9V12.1H155.4z M147.2,32c-4.6,0-8.3-3.7-8.3-8.3s3.7-8.3,8.3-8.3s8.3,3.7,8.3,8.3S151.7,32,147.2,32z"/>
	<circle class="st1" cx="30.2" cy="3.9" r="3.9"/>
	<rect x="175.9" y="12.1" class="st0" width="3.9" height="23.3"/>
	<circle class="st1" cx="177.9" cy="3.9" r="3.9"/>
	<circle class="st0" cx="316.1" cy="3.9" r="3.9"/>
	<path class="st0" d="M79.1,27.7C77.8,30.3,75,32,71.9,32c-3.9,0-7.2-2.7-8-6.3h14.9l0,0h5.1c0.1-0.6,0.2-1.3,0.2-1.9
		c0-6.7-5.4-12.1-12.1-12.1c-6.7,0-12.1,5.4-12.1,12.1s5.4,12.1,12.1,12.1c5.3,0,9.9-3.5,11.5-8.3H79.1z M71.9,15.5
		c3.9,0,7.2,2.7,8,6.3H63.8C64.7,18.2,68,15.5,71.9,15.5z"/>
	<path class="st1" d="M250.1,11.7l7.3-7.3V0.5h-18v3.9h12.4l-11.1,11.1h8.9l0,0c4.6,0,8.3,3.7,8.3,8.3s-3.7,8.3-8.3,8.3
		c-4.6,0-8.3-3.7-8.3-8.3v0h-3.9v0c0,6.7,5.4,12.1,12.1,12.1c6.7,0,12.1-5.4,12.1-12.1C261.7,17.2,256.6,11.9,250.1,11.7z"/>
	<path class="st0" d="M122,11.6c-3,0-5.7,1.1-7.8,2.8v-14h-3.9v34.9h3.9V21c1.2-3.2,4.2-5.4,7.8-5.4c2.3,0,4.3,0.9,5.8,2.4v17.5h3.9
		l0-19.4C130.3,14.4,126.7,11.6,122,11.6z"/>
	<path class="st0" d="M196.3,11.6c-3,0-5.7,1.1-7.8,2.8v-2.3h-3.9v23.3h3.9V21c1.2-3.2,4.2-5.4,7.8-5.4c2.3,0,4.3,0.9,5.8,2.4v17.5
		h3.9l0-19.4C204.6,14.4,201,11.6,196.3,11.6z"/>
	<path class="st0" d="M107.3,29.6c0-2.6-1.8-4.9-4.2-5.6l0,0l-11.6-4.2c-0.8-0.2-1.4-1-1.4-1.9c0-1.1,0.9-1.9,1.9-1.9l10.6,0v-3.9
		H92c-3.2,0-5.8,2.6-5.8,5.8c0,2.6,1.7,4.8,4,5.5l11.8,4.2c0.8,0.2,1.4,1,1.4,1.9c0,1.1-0.9,1.9-1.9,1.9H87v3.9h14.4v0
		C104.7,35.4,107.3,32.8,107.3,29.6z"/>
	<path class="st0" d="M97.2,21.6"/>
	<path class="st0" d="M169.7,12.1L169.7,12.1c-3.2,0-5.8,2.6-5.8,5.8v17.5h3.9V18c0-1.1,0.9-1.9,1.9-1.9l1.9,0v-3.9H169.7z"/>
	<path class="st0" d="M229.7,12.1v2.8c-2.2-2-5.1-3.2-8.3-3.2c-6.7,0-12.1,5.4-12.1,12.1s5.4,12.1,12.1,12.1c3.2,0,6.1-1.2,8.3-3.2
		c-0.1,3.7-3.1,6.6-6.8,6.6h-5.8v3.9h5.8c5.9,0,10.7-4.8,10.7-10.7l0-20.4H229.7z M221.5,32c-4.6,0-8.3-3.7-8.3-8.3s3.7-8.3,8.3-8.3
		c4.6,0,8.3,3.7,8.3,8.3S226,32,221.5,32z"/>
</g>
</svg>
