<?xml version="1.0" encoding="utf-8"?>
<!-- Generator: Adobe Illustrator 20.1.0, SVG Export Plug-In . SVG Version: 6.00 Build 0)  -->
<svg version="1.1" id="Layer_1" xmlns="http://www.w3.org/2000/svg" xmlns:xlink="http://www.w3.org/1999/xlink" x="0px" y="0px"
	 viewBox="0 0 147.4 117.7" style="enable-background:new 0 0 147.4 117.7;" xml:space="preserve">
<style type="text/css">
	.st0{fill:#474E62;}
</style>
<g>
	<rect x="37.4" y="0.5" class="st0" width="3.9" height="34.9"/>
	<rect x="28.3" y="12.1" class="st0" width="3.9" height="23.3"/>
	<polygon class="st0" points="48.8,23.8 59.7,12.8 57,10.1 43.3,23.8 59.7,40.3 62.5,37.5 	"/>
	<path class="st0" d="M12.1,11.6c-3.2,0-6.1,1.2-8.3,3.2V0.5H0v34.9h3.9v-2.8c2.2,2,5.1,3.2,8.3,3.2c6.7,0,12.1-5.4,12.1-12.1
		S18.8,11.6,12.1,11.6z M12.1,32c-4.6,0-8.3-3.7-8.3-8.3s3.7-8.3,8.3-8.3c4.6,0,8.3,3.7,8.3,8.3S16.7,32,12.1,32z"/>
	<circle class="st0" cx="30.2" cy="3.9" r="3.9"/>
	<path class="st0" d="M79.1,27.7C77.8,30.3,75,32,71.9,32c-3.9,0-7.2-2.7-8-6.3h14.9l0,0h5.1c0.1-0.6,0.2-1.3,0.2-1.9
		c0-6.7-5.4-12.1-12.1-12.1c-6.7,0-12.1,5.4-12.1,12.1s5.4,12.1,12.1,12.1c5.3,0,9.9-3.5,11.5-8.3H79.1z M71.9,15.5
		c3.9,0,7.2,2.7,8,6.3H63.8C64.7,18.2,68,15.5,71.9,15.5z"/>
	<g>
		<path class="st0" d="M66.6,97.3c4.6,0,8.3,3.7,8.3,8.3c0,4.6-3.7,8.3-8.3,8.3s-8.3-3.7-8.3-8.3C58.3,101,62,97.3,66.6,97.3
			 M66.6,93.4c-6.7,0-12.1,5.4-12.1,12.1c0,6.7,5.4,12.1,12.1,12.1s12.1-5.4,12.1-12.1C78.7,98.9,73.3,93.4,66.6,93.4L66.6,93.4z"/>
		<path class="st0" d="M39.8,93.4l8.4-8.4l-2.7-2.7l-15,15c-2,2.2-3.2,5.1-3.2,8.3c0,6.7,5.4,12.1,12.1,12.1s12.1-5.4,12.1-12.1
			C51.5,99,46.3,93.7,39.8,93.4z M39.4,113.8c-4.6,0-8.3-3.7-8.3-8.3c0-2.2,0.9-4.3,2.4-5.8l0.1-0.1c1.5-1.5,3.5-2.4,5.8-2.4
			c4.6,0,8.3,3.7,8.3,8.3C47.6,110.1,43.9,113.8,39.4,113.8z"/>
		<circle class="st0" cx="78.7" cy="85.7" r="3.9"/>
		<path class="st0" d="M12.7,93.4l7.3-7.3v-3.9H2v3.9h12.4L3.3,97.3h8.9l0,0c4.6,0,8.3,3.7,8.3,8.3c0,4.6-3.7,8.3-8.3,8.3
			c-4.6,0-8.3-3.7-8.3-8.3v0H0.1v0c0,6.7,5.4,12.1,12.1,12.1c6.7,0,12.1-5.4,12.1-12.1C24.3,99,19.1,93.7,12.7,93.4z"/>
	</g>
	<g>
		<path class="st0" d="M69.2,50.1v2.8c-2.2-2-5.1-3.2-8.3-3.2c-6.7,0-12.1,5.4-12.1,12.1S54.3,73.8,61,73.8c3.2,0,6.1-1.2,8.3-3.2
			v2.8h3.9V50.1H69.2z M61,70c-4.6,0-8.3-3.7-8.3-8.3s3.7-8.3,8.3-8.3s8.3,3.7,8.3,8.3S65.5,70,61,70z"/>
		<rect x="89.7" y="50.1" class="st0" width="3.9" height="23.3"/>
		<circle class="st0" cx="91.6" cy="41.8" r="3.9"/>
		<path class="st0" d="M35.8,49.6c-3,0-5.7,1.1-7.8,2.8v-14h-3.9v34.9H28V58.9c1.2-3.2,4.2-5.4,7.8-5.4c2.3,0,4.3,0.9,5.8,2.4v17.5
			h3.9l0-19.4C44.1,52.3,40.5,49.6,35.8,49.6z"/>
		<path class="st0" d="M110.1,49.6c-3,0-5.7,1.1-7.8,2.8v-2.3h-3.9v23.3h3.9V58.9c1.2-3.2,4.2-5.4,7.8-5.4c2.3,0,4.3,0.9,5.8,2.4
			v17.5h3.9l0-19.4C118.4,52.3,114.7,49.6,110.1,49.6z"/>
		<path class="st0" d="M21.1,67.5c0-2.6-1.8-4.9-4.2-5.6l0,0L5.2,57.7c-0.8-0.2-1.4-1-1.4-1.9c0-1.1,0.9-1.9,1.9-1.9l10.6,0v-3.9
			H5.8c-3.2,0-5.8,2.6-5.8,5.8c0,2.6,1.7,4.8,4,5.5l11.8,4.2c0.8,0.2,1.4,1,1.4,1.9c0,1.1-0.9,1.9-1.9,1.9H0.8v3.9h14.4v0
			C18.5,73.3,21.1,70.7,21.1,67.5z"/>
		<path class="st0" d="M11,59.5"/>
		<path class="st0" d="M83.5,50.1L83.5,50.1c-3.2,0-5.8,2.6-5.8,5.8v17.5h3.9V55.9c0-1.1,0.9-1.9,1.9-1.9l1.9,0v-3.9H83.5z"/>
		<path class="st0" d="M143.5,50.1v2.8c-2.2-2-5.1-3.2-8.3-3.2c-6.7,0-12.1,5.4-12.1,12.1s5.4,12.1,12.1,12.1c3.2,0,6.1-1.2,8.3-3.2
			c-0.1,3.7-3.1,6.6-6.8,6.6h-5.8v3.9h5.8c5.9,0,10.7-4.8,10.7-10.7l0-20.4H143.5z M135.2,70c-4.6,0-8.3-3.7-8.3-8.3
			s3.7-8.3,8.3-8.3c4.6,0,8.3,3.7,8.3,8.3S139.8,70,135.2,70z"/>
	</g>
</g>
</svg>
