<?xml version="1.0" encoding="utf-8"?>
<!-- Generator: Adobe Illustrator 20.1.0, SVG Export Plug-In . SVG Version: 6.00 Build 0)  -->
<svg version="1.1" id="Capa_1" xmlns="http://www.w3.org/2000/svg" xmlns:xlink="http://www.w3.org/1999/xlink" x="0px" y="0px"
	 viewBox="0 0 1639 350" style="enable-background:new 0 0 1639 350;" xml:space="preserve">
<style type="text/css">
	.st0{fill:#F25022;}
	.st1{fill:#80BA01;}
	.st2{fill:#777777;}
	.st3{fill:#02A4EF;}
	.st4{fill:#FFB902;}
</style>
<path class="st0" d="M0,0h166.5c0,55.5,0,111,0,166.5c-55.5,0-111,0-166.5,0V0L0,0z"/>
<path class="st1" d="M183.5,0H350c0,55.5,0,111,0,166.5c-55.5,0-111,0-166.5,0C183.5,111,183.5,55.5,183.5,0L183.5,0z"/>
<path class="st2" d="M1501.4,63.4c15.4-10,35.2-10.9,52.5-6.2c0.1,10.3,0,20.6,0.1,30.9c-8.2-3.6-17.9-6-26.5-2.4
	c-6.9,2.7-10.9,9.8-12,16.8c-1.3,8.9-0.4,18-0.7,27c17.6,0,35.1,0,52.7,0c0.1-11.4-0.1-22.8,0.2-34.2c11.9-3.4,23.8-7.2,35.6-10.8
	c0.1,15-0.1,30,0.1,45.1c11.9-0.2,23.8,0,35.6-0.1v29.2c-11.9-0.5-23.8-0.1-35.8-0.2c0.1,16.8,0,33.6,0,50.4
	c0.2,9.3-0.5,18.7,0.6,27.9c0.7,5.5,2.6,11.5,7.8,14.4c8.6,4.8,19.5,2.7,27.4-2.6v29.5c-10.3,4.5-21.8,5.8-32.9,5
	c-10.6-0.8-21.5-4.6-28.4-13c-8-9.5-10-22.3-10.2-34.4c-0.1-25.8,0-51.6,0-77.4c-17.6,0-35.1,0-52.7,0c0,40.5,0,81,0,121.5
	c-12,0-24,0-36,0c0-40.5-0.1-81,0-121.4c-8.3-0.2-16.7,0-25.1-0.1c0-9.6,0.1-19.2,0-28.9c8.3-0.2,16.6-0.1,25-0.1
	c0.6-12.8-1.3-25.9,2.5-38.4C1484.4,79.9,1491.6,69.8,1501.4,63.4L1501.4,63.4z"/>
<path class="st2" d="M730.5,65.5c7.3-1.1,15.1,1.4,19.9,7.1c5.6,6.2,6.7,16.1,2.5,23.4c-4.6,8.2-15,12-24,10
	c-9.3-1.7-17.1-10.4-16.7-20.1C711.9,75.8,720.5,66.7,730.5,65.5L730.5,65.5z"/>
<path class="st2" d="M454.5,70c17.5,0,34.9,0,52.4,0c16.3,41.4,32.7,82.7,49,124.1c4.2,10.4,8.1,20.8,12.4,31.1
	c21-51.7,42.2-103.3,63.1-155.1c16.8-0.3,33.6-0.1,50.4-0.1c0,70,0,140,0,210c-12.1,0-24.2,0.1-36.3-0.1c0.1-51.6,0-103.3,0.1-155
	c0-2.3-0.1-4.6-0.2-7c-0.7,1.1-1.3,2.2-1.9,3.4c-20.8,52.9-42,105.6-62.7,158.5c-8.6,0.3-17.2,0-25.9,0.2
	c-21.5-52.9-42.7-105.9-64-158.8c-0.6-1.1-1.2-2.2-1.8-3.2c-0.4,22.6-0.1,45.3-0.2,67.9c0,31.3,0,62.7,0,94c-11.4,0-22.9,0-34.3,0
	C454.5,210,454.5,140,454.5,70L454.5,70z"/>
<path class="st2" d="M829.6,129.3c17.4-5,36.1-4.8,53.5,0.2c3.6,1,7,2.4,10.3,4.3c-0.2,11.5,0,23-0.1,34.4
	c-11.6-8.9-26.3-14.5-41.1-12.6c-11.7,1.1-22.9,7.1-29.9,16.6c-9,11.7-11.1,27.3-9.5,41.7c1.2,11.2,5.8,22.5,14.5,29.9
	c9.1,8.1,21.8,10.9,33.7,10c11.7-1.4,22.8-6.3,32.3-13.3c0.1,10.9,0,21.7,0.1,32.6c-14.7,8.8-32.4,11-49.2,10.2
	c-17.2-0.9-34.4-7.4-46.9-19.6c-13.6-13.1-20.9-31.7-21.8-50.4c-0.9-19.4,3.1-39.7,14.2-55.9C799,143.7,813.6,133.9,829.6,129.3
	L829.6,129.3z"/>
<path class="st2" d="M1222.9,127.1c16.6-2.9,34.1-0.8,49.8,5.2c0,11,0,22.1,0,33.1c-11-7.6-24.5-11.6-37.8-11.2
	c-6.7,0.3-14.1,3.1-17.2,9.5c-2.4,6.3-0.8,14.6,5.2,18.4c10.2,6.8,22.4,9.7,33,15.9c8.3,4.7,16.4,10.8,20.6,19.6
	c7.9,16.5,4.6,38.4-9.4,50.7c-13.3,12.4-32.5,15.9-50.1,15.2c-12.5-0.8-25.1-3.3-36.6-8.4c0.1-11.6-0.1-23.2,0.1-34.8
	c9.7,7,20.8,12.1,32.7,14.1c8.2,1.3,17.2,1.4,24.9-2.3c7.3-3.6,8.7-14.1,4.3-20.5c-4.1-4.9-10.1-7.6-15.7-10.3
	c-10.6-4.8-21.8-8.8-31.1-15.9c-6.6-5.1-11.5-12.3-13.5-20.4c-2.9-12-2-25.5,5-35.9C1195,136.9,1208.8,129.6,1222.9,127.1
	L1222.9,127.1z"/>
<path class="st2" d="M973.8,131.8c9.9-6,22.6-6.5,33.4-2.8c-0.1,12,0,24,0,36c-7.1-4.6-16-6.6-24.3-5.7c-10.2,1.2-18.3,9-22.5,18
	c-4.6,9.5-5.4,20.3-5.1,30.7c0,24,0,48,0,72c-11.8,0-23.7,0-35.5,0c0-50.1,0-100.3,0-150.4c11.8-0.2,23.7-0.1,35.5,0
	c-0.1,8.6,0,17.2,0,25.8C959.1,146,964.8,136.9,973.8,131.8L973.8,131.8z"/>
<path class="st2" d="M715.5,129.5c11.9,0,23.9-0.2,35.8,0.1c-0.1,50.1,0,100.3-0.1,150.4c-11.9,0-23.8,0-35.7,0
	C715.5,229.8,715.5,179.7,715.5,129.5L715.5,129.5z"/>
<path class="st2" d="M1156.5,164.6c-6.3-13.9-17.5-25.5-31.5-31.8c-16-7.3-34.3-8.3-51.5-6.1c-18.2,2.3-35.8,10.8-47.3,25.3
	c-10.5,12.9-15.6,29.5-16.6,46c-1.4,19.4,1.8,40,13.2,56.2c9.7,14,25,23.6,41.6,27.1c13.8,2.9,28.3,2.9,42.2,0
	c16.2-3.3,31.3-12.3,41.3-25.5c9.8-12.4,14.7-28.1,15.8-43.8C1164.8,196.1,1163.2,179.4,1156.5,164.6z M1121.8,233.7
	c-3.4,7.7-9.7,14.3-17.7,17.4c-9.3,3.6-19.8,3.8-29.4,1.3c-9.8-2.6-18.1-9.6-22.6-18.6c-5.8-11.6-6.7-25-5.5-37.7
	c1.1-11.5,5.1-23.4,13.9-31.4c6.4-6,15.1-8.9,23.7-9.3c10.8-0.7,22.3,2.3,30.1,10.2c8.3,8.2,11.5,20,12.4,31.4
	C1127.5,209.3,1127,222.2,1121.8,233.7z"/>
<path class="st2" d="M1444.9,169c-5.5-14.9-16.6-27.9-30.9-35c-16.4-8.3-35.5-9.5-53.4-7.3c-14.5,1.9-28.7,7.4-39.8,17.1
	c-13.5,11.6-21.4,28.7-23.8,46.2c-2.2,17.5-1.5,35.9,5.7,52.3c6.8,16.1,20.3,29.1,36.6,35.5c16,6.3,33.8,7,50.7,4.3
	c17.3-2.8,33.6-11.9,44.3-25.9c11.4-14.4,16.3-33.1,16.3-51.3C1450.8,192.8,1449.3,180.4,1444.9,169z M1412.4,220
	c-1.4,7.9-4.1,15.8-9.3,22.1c-5.2,6.3-13,10.1-21,11.3c-8.6,1.3-17.7,0.7-25.8-2.8c-8.7-3.7-15.4-11.2-19-19.9
	c-4.3-10.3-5.1-21.8-4.3-32.8c0.8-10.7,3.9-21.7,10.9-30c6.4-7.8,16.3-12.1,26.3-12.6c10.2-0.7,21,1.6,28.8,8.5
	c7.2,6,11.2,14.9,13,24C1414.2,198.4,1414.2,209.4,1412.4,220z"/>
<path class="st3" d="M0,183.5c55.5,0,111,0,166.5,0c0,55.5,0,111,0,166.5H0V183.5L0,183.5z"/>
<path class="st4" d="M183.5,183.5c55.5,0,111,0,166.5,0c0,55.5,0,111,0,166.5H183.5C183.5,294.5,183.5,239,183.5,183.5L183.5,183.5z
	"/>
</svg>
